<?xml version="1.0" standalone="no"?>
<!DOCTYPE svg PUBLIC "-//W3C//DTD SVG 20010904//EN"
 "http://www.w3.org/TR/2001/REC-SVG-20010904/DTD/svg10.dtd">
<svg version="1.0" xmlns="http://www.w3.org/2000/svg"
 width="512.000000pt" height="512.000000pt" viewBox="0 0 512.000000 512.000000"
 preserveAspectRatio="xMidYMid meet">
<metadata>
Created by potrace 1.14, written by Peter Selinger 2001-2017
</metadata>
<g transform="translate(0.000000,512.000000) scale(0.100000,-0.100000)"
fill="#000000" stroke="none">
<path d="M2427 4904 c-1 -1 -36 -5 -77 -8 -41 -4 -88 -9 -105 -12 -16 -2 -43
-6 -60 -8 -16 -2 -64 -11 -105 -20 -41 -10 -84 -19 -94 -21 -62 -14 -232 -72
-324 -111 -340 -145 -624 -356 -870 -647 -67 -80 -162 -211 -196 -272 -9 -16
-30 -52 -47 -80 -16 -27 -33 -59 -38 -70 -5 -11 -26 -56 -46 -100 -60 -130
-123 -314 -151 -448 -24 -111 -39 -219 -50 -342 -5 -55 -4 -359 1 -418 5 -67
14 -147 20 -182 41 -235 103 -439 182 -605 20 -41 37 -77 37 -80 3 -13 90
-164 134 -231 249 -376 611 -677 1026 -854 164 -69 432 -143 581 -160 17 -2
57 -7 90 -11 121 -14 473 -7 535 11 8 2 39 7 69 10 30 4 113 21 185 39 626
159 1159 575 1462 1141 32 61 59 112 60 115 0 3 13 32 27 64 44 96 104 282
131 406 45 201 51 271 51 550 0 213 -5 308 -20 395 -3 17 -10 57 -16 90 -24
139 -127 459 -162 503 -5 6 -7 12 -4 12 16 0 -219 400 -253 430 -3 3 -33 39
-67 80 -80 97 -169 189 -263 270 -41 36 -77 67 -80 70 -14 15 -184 131 -250
171 -189 114 -475 230 -651 264 -12 2 -28 6 -37 9 -9 3 -30 7 -47 10 -16 3
-45 8 -62 11 -75 12 -91 14 -163 21 -67 6 -347 13 -353 8z"/>
</g>
</svg>
