<?xml version="1.0" standalone="no"?>
<!DOCTYPE svg PUBLIC "-//W3C//DTD SVG 20010904//EN"
 "http://www.w3.org/TR/2001/REC-SVG-20010904/DTD/svg10.dtd">
<svg version="1.0" xmlns="http://www.w3.org/2000/svg"
 width="1152.000000pt" height="1152.000000pt" viewBox="0 0 1152.000000 1152.000000"
 preserveAspectRatio="xMidYMid meet">
<metadata>
Created by potrace 1.14, written by Peter Selinger 2001-2017
</metadata>
<g transform="translate(0.000000,1152.000000) scale(0.100000,-0.100000)"
fill="#000000" stroke="none">
<path d="M0 10860 l0 -660 63 -2 c34 -1 74 -2 89 -2 14 -1 24 -4 21 -8 -2 -5
14 -8 36 -8 30 0 41 -4 41 -15 0 -8 6 -15 14 -15 7 0 19 -7 26 -15 7 -9 21
-13 35 -9 17 4 29 -3 50 -28 15 -18 37 -36 49 -39 11 -3 20 -11 18 -18 -1 -7
7 -15 18 -18 11 -3 20 -12 20 -19 0 -8 11 -19 25 -24 14 -5 24 -15 23 -21 -2
-7 10 -16 27 -20 16 -5 34 -15 40 -22 5 -7 18 -16 28 -20 10 -4 15 -11 12 -17
-3 -5 5 -14 20 -20 14 -5 28 -16 31 -24 6 -15 41 -32 57 -28 4 1 7 -3 7 -8 0
-6 12 -15 26 -20 14 -6 22 -14 19 -20 -3 -5 -2 -10 4 -10 18 0 71 -52 71 -70
0 -10 10 -20 23 -24 18 -5 19 -8 7 -15 -12 -9 -12 -11 3 -17 9 -3 17 -14 17
-24 0 -10 9 -20 21 -23 12 -3 18 -10 15 -16 -4 -5 -2 -12 4 -16 5 -3 10 -15
10 -25 0 -11 10 -22 22 -26 22 -7 22 -7 3 -15 -17 -6 -16 -8 12 -14 18 -4 31
-11 28 -15 -6 -9 17 -70 27 -70 10 0 28 -68 28 -107 0 -17 4 -34 10 -38 5 -3
7 -12 3 -20 -3 -10 1 -15 12 -15 12 0 16 -6 12 -20 -3 -11 -1 -20 5 -20 14 0
5 -258 -10 -290 -7 -14 -18 -33 -24 -43 -11 -14 -10 -19 2 -27 12 -8 12 -10 1
-10 -11 0 -11 -3 -1 -15 10 -12 10 -15 -4 -15 -9 0 -16 -6 -16 -14 0 -8 -8
-17 -17 -21 -10 -3 -26 -24 -36 -48 -31 -71 -39 -86 -59 -106 -10 -11 -18 -26
-18 -33 0 -25 -118 -140 -145 -142 -14 0 -25 -7 -25 -14 0 -7 -16 -22 -35 -33
-20 -12 -40 -30 -46 -40 -5 -11 -19 -19 -29 -19 -11 0 -20 -4 -20 -8 0 -4 -17
-14 -37 -21 -21 -7 -47 -21 -58 -31 -20 -18 -79 -34 -167 -45 -27 -3 -48 -10
-48 -14 0 -14 -72 -42 -91 -36 -22 7 -87 -12 -107 -31 -14 -15 -76 -34 -108
-34 -12 0 -25 -7 -28 -16 -4 -9 -6 -270 -6 -580 1 -499 2 -564 16 -564 8 0 13
4 9 9 -3 5 -2 12 3 15 9 5 325 19 407 18 126 -2 140 -1 150 13 6 7 31 15 55
18 25 3 64 13 88 22 35 14 67 17 182 13 77 -2 140 -1 140 2 0 3 18 4 40 2 23
-2 40 -9 40 -16 0 -7 18 -21 40 -32 22 -10 40 -22 40 -26 0 -5 9 -8 21 -8 11
0 17 -4 14 -10 -3 -5 -1 -10 5 -10 6 0 8 -4 5 -10 -3 -6 4 -10 16 -10 12 0 19
-3 16 -7 -4 -3 0 -17 8 -29 11 -17 12 -24 2 -27 -6 -3 0 -10 16 -16 15 -6 26
-14 25 -18 -1 -5 6 -26 16 -48 10 -22 20 -57 23 -77 3 -21 10 -38 14 -38 5 0
9 -31 9 -69 0 -47 5 -74 14 -84 8 -8 20 -42 26 -75 7 -34 16 -62 20 -62 5 0
13 -13 18 -29 13 -37 85 -71 151 -71 41 0 51 -4 78 -35 24 -26 40 -35 65 -36
18 0 27 -3 20 -6 -6 -2 -12 -9 -12 -14 0 -6 4 -7 10 -4 5 3 10 -2 11 -12 0
-16 1 -16 9 2 7 16 9 16 9 4 2 -30 48 -41 180 -41 53 0 78 4 85 14 6 8 18 15
26 16 8 1 37 4 63 7 44 4 94 16 137 32 8 4 18 6 22 5 4 -1 12 7 17 17 6 10 26
22 44 25 22 4 39 15 47 31 7 14 21 27 32 31 10 3 18 9 18 15 0 14 33 48 42 43
4 -3 8 0 8 5 0 6 -7 11 -15 11 -21 0 -19 6 20 66 19 29 35 58 35 66 0 7 9 27
20 43 11 17 20 38 20 48 0 10 6 20 14 23 8 3 12 14 9 27 -4 17 -3 19 6 7 8
-12 12 -9 21 15 8 21 13 26 19 16 7 -11 10 -11 17 1 5 8 30 23 56 33 26 9 50
26 53 35 3 10 12 21 20 24 10 3 15 19 15 43 1 35 2 36 13 17 10 -18 14 -20 25
-8 6 7 12 18 12 25 0 6 7 9 15 5 8 -3 15 -1 15 5 0 6 4 8 9 4 24 -14 23 -17
16 439 l-5 349 -46 44 c-25 23 -50 40 -55 37 -5 -3 -12 3 -16 13 -12 31 -26
38 -88 41 -33 1 -109 5 -170 7 -60 3 -125 9 -144 15 -19 5 -38 7 -43 4 -16
-10 -58 18 -58 37 0 13 -11 20 -35 25 -25 4 -47 20 -76 53 -23 25 -46 46 -52
46 -7 0 -12 10 -12 22 0 12 -4 25 -8 29 -4 4 -7 17 -7 28 0 12 -7 30 -15 40
-8 11 -13 29 -10 40 2 12 7 53 9 91 6 88 23 138 43 131 9 -4 17 1 20 13 3 11
13 21 24 24 13 3 19 14 19 31 0 14 5 26 10 26 6 0 10 9 10 20 0 11 6 20 13 20
9 0 11 20 9 78 -6 144 -5 203 7 215 8 8 11 5 11 -12 0 -14 4 -20 11 -15 7 4 9
21 6 40 -3 19 -1 36 4 40 5 3 7 9 4 14 -3 5 -1 11 5 15 6 4 8 11 5 16 -4 5 -1
9 5 9 6 0 15 11 22 25 6 13 15 22 20 19 5 -3 12 3 14 14 3 10 20 26 37 35 18
9 39 21 47 26 32 20 89 41 110 41 11 0 19 4 16 9 -3 5 8 11 24 15 18 3 30 12
30 21 0 8 7 15 16 15 8 0 20 14 26 32 l11 32 10 -25 c5 -13 11 -19 14 -12 2 7
10 10 18 7 9 -4 14 7 17 38 6 58 1 68 -33 68 -19 0 -32 6 -36 18 -4 9 -19 29
-35 45 -15 15 -28 34 -28 42 0 8 -9 15 -20 15 -11 0 -20 7 -20 15 0 8 -9 20
-20 27 -12 8 -20 24 -20 40 0 15 -4 30 -10 33 -5 3 -10 -3 -10 -14 0 -12 -3
-21 -7 -21 -5 0 -9 25 -10 57 -1 31 -5 59 -10 62 -12 9 -17 341 -5 341 5 0 12
18 16 40 3 22 10 39 14 37 4 -1 20 10 35 25 29 29 37 78 12 78 -9 0 -12 6 -8
16 3 9 0 20 -7 24 -19 12 -3 28 23 23 25 -5 38 15 41 61 1 11 7 21 14 23 8 3
12 -7 12 -32 0 -33 2 -36 16 -25 9 9 38 12 79 11 63 -2 63 -2 70 28 5 24 12
31 31 31 17 0 24 6 24 20 0 11 5 20 10 20 6 0 10 -9 10 -20 0 -11 5 -20 10
-20 6 0 10 -12 10 -26 0 -14 4 -23 10 -19 6 3 10 15 10 26 0 25 25 25 52 0 13
-13 19 -27 15 -41 -3 -11 1 -27 8 -34 18 -17 32 -146 17 -146 -6 0 -13 6 -15
13 -3 6 -6 2 -6 -10 -1 -14 5 -23 14 -23 10 0 15 -10 15 -30 0 -18 -5 -30 -13
-30 -8 0 -12 -10 -10 -27 6 -60 10 -68 39 -73 23 -4 30 -11 32 -33 3 -22 -1
-27 -17 -27 -17 0 -21 -6 -21 -30 0 -27 9 -35 33 -31 5 1 6 -8 2 -19 -4 -13
-1 -22 9 -26 9 -3 16 -12 16 -20 0 -13 11 -18 36 -15 6 1 21 -11 35 -25 23
-25 24 -29 21 -167 -1 -104 1 -143 10 -149 14 -8 14 -80 3 -235 -6 -76 -5 -83
12 -83 17 0 43 -40 43 -67 0 -7 4 -13 9 -13 5 0 12 -12 15 -26 4 -15 13 -31
19 -38 44 -40 62 -50 104 -61 42 -11 53 -10 91 6 24 11 55 19 68 19 13 0 24 5
24 11 0 6 10 8 23 5 12 -3 16 -3 10 0 -27 12 -11 22 48 28 33 4 78 16 99 27
38 20 138 41 153 32 4 -2 7 1 7 7 0 6 4 9 9 5 5 -3 12 -1 16 5 4 6 10 8 15 5
5 -3 11 -1 15 5 3 5 15 10 26 10 10 0 19 5 19 10 0 6 9 10 20 10 11 0 20 5 20
10 0 6 7 10 15 10 9 0 32 15 51 33 20 17 42 32 49 32 8 0 17 4 21 8 4 4 14 7
21 7 8 0 21 7 29 15 9 8 26 15 38 15 13 0 29 -7 36 -15 9 -10 9 -15 1 -15 -6
0 -11 -4 -11 -10 0 -5 20 -10 45 -10 25 0 45 -4 45 -10 0 -5 6 -7 13 -4 8 3
20 -2 27 -11 7 -8 20 -15 30 -15 10 0 28 -11 41 -25 13 -13 31 -25 39 -26 11
0 12 -2 2 -6 -10 -4 -7 -9 9 -17 12 -6 24 -22 26 -36 2 -14 10 -30 18 -36 8
-6 20 -25 26 -43 6 -17 18 -31 26 -31 8 0 17 -9 20 -20 3 -11 14 -20 24 -20
11 0 19 -4 19 -10 0 -5 6 -9 13 -7 15 3 19 -55 3 -65 -7 -5 -5 -11 6 -20 19
-14 26 -41 27 -100 1 -31 5 -38 20 -38 24 0 39 -39 20 -51 -8 -5 -24 -9 -36
-9 -33 0 -57 -52 -57 -125 -1 -33 0 -150 1 -260 0 -110 1 -240 1 -290 0 -49 5
-103 11 -118 10 -26 12 -27 27 -13 14 14 14 18 0 38 -20 27 -22 102 -3 96 6
-3 13 -15 15 -29 4 -33 24 -82 38 -94 11 -9 26 -115 17 -115 -2 0 -18 13 -36
30 -34 32 -47 26 -47 -21 0 -14 -7 -39 -15 -56 -29 -58 15 -269 60 -287 17 -6
4 -62 -14 -58 -6 1 -11 -5 -11 -14 0 -8 4 -13 9 -9 17 10 22 -13 6 -29 -10
-10 -15 -32 -14 -68 2 -76 -8 -235 -15 -247 -4 -6 -12 -8 -19 -6 -11 4 -43
-52 -67 -117 -5 -16 -16 -28 -24 -28 -15 0 -43 -40 -29 -40 4 0 0 -5 -10 -11
-11 -6 -25 -27 -34 -46 -8 -19 -17 -33 -20 -30 -11 11 -33 -22 -34 -50 0 -24
-1 -25 -8 -8 -8 19 -9 19 -12 -4 -3 -17 -14 -28 -36 -35 -18 -6 -33 -15 -34
-21 -4 -22 -30 -51 -64 -69 -19 -11 -35 -23 -35 -28 0 -4 -6 -8 -14 -8 -8 0
-21 -7 -30 -15 -8 -9 -19 -15 -23 -14 -4 1 -21 -3 -38 -10 -17 -8 -86 -15
-156 -17 l-127 -3 -37 29 c-21 17 -43 26 -52 23 -8 -3 -19 0 -23 7 -4 7 -13 9
-19 6 -6 -4 -9 -12 -6 -17 4 -5 1 -9 -5 -9 -6 0 -8 -4 -5 -10 3 -5 -1 -10 -9
-10 -9 0 -16 7 -16 16 0 14 -1 14 -16 0 -8 -9 -26 -19 -40 -22 -13 -3 -24 -10
-24 -15 0 -5 -11 -9 -24 -9 -14 0 -28 -4 -31 -10 -3 -5 -14 -10 -24 -10 -10 0
-21 -9 -24 -20 -3 -14 -14 -20 -31 -20 -16 0 -26 -6 -26 -15 0 -8 -9 -15 -20
-15 -12 0 -25 -10 -32 -25 -6 -14 -15 -25 -20 -25 -4 0 -8 -8 -8 -19 0 -10 -9
-21 -20 -24 -26 -7 -26 -37 0 -44 11 -3 20 -12 20 -20 0 -8 -4 -11 -10 -8 -11
7 -13 -35 -2 -50 4 -5 14 -11 22 -13 8 -2 17 -8 18 -13 2 -5 21 -9 42 -9 21 0
42 -4 45 -10 3 -5 22 -10 42 -10 22 0 41 -6 48 -17 8 -11 32 -18 74 -21 56 -4
78 -15 49 -24 -9 -3 -9 -6 0 -12 7 -4 12 -2 12 3 0 6 5 11 11 11 7 0 9 -10 5
-25 -6 -23 -3 -25 26 -26 l33 -1 -40 -13 c-22 -6 -71 -15 -110 -18 -46 -4 -74
-12 -81 -22 -13 -17 -44 -20 -44 -4 0 8 -4 8 -14 0 -7 -6 -21 -9 -30 -5 -9 3
-16 1 -16 -5 0 -6 -9 -11 -20 -11 -10 0 -29 -4 -42 -9 -13 -6 -39 -12 -58 -15
-28 -5 -36 -11 -37 -28 -1 -13 -7 -24 -12 -26 -5 -2 -36 -20 -68 -41 -139 -89
-168 -102 -260 -111 -113 -12 -245 -37 -308 -60 -27 -9 -113 -34 -190 -54 -77
-21 -189 -55 -250 -76 -60 -22 -141 -47 -179 -56 -39 -9 -86 -24 -105 -32 -29
-12 -70 -15 -200 -13 -91 2 -175 7 -187 11 -14 6 -34 4 -53 -3 -24 -9 -38 -9
-63 1 -18 7 -36 8 -42 3 -6 -5 -72 -12 -146 -15 -121 -6 -139 -9 -172 -31 -21
-14 -41 -25 -45 -25 -14 0 -144 -144 -171 -190 -14 -25 -32 -49 -39 -53 -7 -5
-11 -12 -8 -17 6 -10 -15 -60 -25 -60 -4 0 -13 -19 -20 -42 -7 -24 -22 -52
-32 -64 -13 -15 -18 -37 -18 -85 0 -36 -9 -105 -19 -154 -23 -106 -26 -221
-16 -545 7 -198 5 -252 -9 -350 -10 -63 -22 -131 -26 -150 -5 -19 -11 -61 -14
-92 -3 -38 -11 -64 -24 -78 -11 -12 -22 -38 -25 -58 -11 -71 -19 -102 -28
-102 -5 0 -9 7 -9 15 0 8 -6 15 -14 15 -9 0 -15 20 -20 62 -4 39 -12 65 -21
71 -8 4 -15 15 -15 22 0 8 -4 15 -10 15 -27 0 -78 -83 -96 -155 -4 -17 -16
-43 -26 -60 -10 -16 -18 -40 -18 -52 0 -12 -4 -25 -10 -28 -5 -3 -10 -15 -10
-27 0 -11 -8 -22 -20 -25 -11 -3 -20 -12 -20 -20 0 -8 -6 -13 -13 -10 -45 20
-66 33 -63 42 2 6 -17 22 -40 38 -24 15 -44 32 -44 38 0 16 -26 39 -57 50 -18
6 -43 33 -68 72 l-40 62 -3 -369 c-1 -203 0 -372 4 -375 13 -13 383 1 424 16
8 3 20 7 25 9 29 7 65 32 53 37 -7 3 2 6 20 6 18 1 32 6 32 14 0 9 3 8 9 -2
11 -17 87 -6 95 15 3 8 12 14 20 14 19 0 56 60 56 91 0 25 62 78 68 59 2 -5
10 -3 19 5 8 8 23 15 33 15 10 0 26 3 35 6 12 5 4 -19 -28 -82 -46 -92 -98
-235 -123 -339 -28 -118 -12 -284 45 -465 l20 -65 -37 -54 c-20 -30 -72 -93
-116 -140 -82 -89 -116 -149 -135 -239 -18 -84 -13 -291 11 -499 l22 -192 -38
-158 c-21 -87 -42 -165 -46 -174 -5 -8 -40 -32 -79 -52 -82 -41 -159 -102
-215 -167 l-39 -45 2766 -3 c1522 -1 4011 -1 5531 0 l2764 3 -33 115 c-30 103
-34 132 -39 275 -5 165 -13 226 -45 355 -11 41 -24 116 -31 165 -26 203 -98
407 -225 637 -65 117 -67 123 -90 262 -24 143 -39 284 -50 456 -10 146 -32
291 -51 328 -13 27 -15 51 -10 120 19 266 18 315 -2 407 -18 81 -19 116 -15
335 6 279 -3 354 -61 534 -19 58 -56 208 -81 332 -70 346 -114 440 -231 503
-21 12 -44 21 -51 21 -7 0 -16 6 -20 13 -12 20 -123 81 -199 112 -38 15 -97
42 -131 61 -34 19 -68 34 -76 34 -8 0 -20 7 -27 15 -12 15 -157 89 -237 122
-24 9 -43 20 -43 24 0 4 -16 10 -35 13 -20 4 -55 15 -78 25 -24 10 -99 33
-168 50 -149 38 -368 110 -390 128 -8 7 -23 13 -31 13 -29 0 -88 30 -88 45 0
8 -8 15 -19 15 -22 0 -46 26 -46 51 0 20 -49 89 -102 146 -18 19 -31 38 -28
43 3 4 -4 19 -15 33 -11 14 -20 36 -20 49 0 27 -14 51 -26 46 -5 -1 -11 8 -14
22 -5 28 -86 106 -110 108 -83 7 -217 35 -226 47 -6 8 -17 15 -23 15 -7 0 -10
4 -6 10 7 11 -87 40 -133 40 -29 0 -33 2 -22 15 10 12 5 13 -42 8 -29 -3 -54
-10 -56 -15 -2 -4 -11 -8 -19 -8 -42 0 -92 -24 -97 -46 -6 -23 -46 -36 -46
-15 0 5 -9 7 -20 4 -12 -3 -20 -14 -20 -26 0 -20 -1 -20 -26 4 -46 42 -124
170 -124 204 0 17 9 57 20 88 11 32 18 62 15 67 -3 5 1 26 9 47 7 21 19 58 26
83 7 25 17 56 22 70 15 39 35 101 48 149 6 24 22 68 35 97 l24 53 28 -14 c49
-25 106 -29 148 -8 45 21 61 47 22 38 -48 -12 -138 48 -159 105 -13 38 9 77
52 91 46 17 49 72 6 109 -9 7 -16 25 -16 41 0 25 -4 29 -30 29 -17 0 -33 -7
-39 -17 -9 -17 -10 -17 -17 1 -4 11 -2 21 6 26 9 5 11 19 7 39 -4 18 -3 30 1
27 17 -10 39 33 46 90 3 32 20 101 37 152 22 66 30 107 27 141 -1 27 1 47 6
44 4 -3 11 -1 15 5 3 6 31 12 61 13 53 3 55 2 58 -24 2 -15 -3 -34 -11 -42 -9
-8 -18 -20 -20 -27 -4 -10 -8 -10 -15 1 -5 7 -14 11 -20 7 -15 -9 -13 -62 5
-126 17 -60 12 -215 -7 -234 -17 -17 -11 -29 11 -23 12 3 28 0 36 -9 27 -27
35 -22 118 67 23 24 49 57 60 74 22 36 24 105 3 137 -14 21 -33 33 -118 72
-31 14 -40 55 -13 57 10 1 25 1 34 0 9 -1 19 5 22 13 4 9 13 13 20 10 10 -3
17 4 21 20 23 91 95 -69 96 -211 0 -35 4 -63 10 -63 6 0 10 4 10 10 0 5 7 7
16 3 12 -4 13 -8 3 -14 -10 -6 -5 -11 14 -18 16 -6 36 -11 45 -11 13 0 14 -2
4 -9 -19 -11 8 -21 58 -21 38 0 69 19 33 21 -14 0 -13 2 5 10 31 12 48 30 57
59 7 24 8 24 15 5 7 -19 8 -18 15 5 4 14 16 31 26 38 11 7 19 24 19 38 0 13 6
27 14 30 8 3 17 27 21 55 4 27 13 56 20 63 8 7 11 23 8 35 -3 11 -1 21 4 21 6
0 22 27 37 60 15 33 34 60 42 60 8 0 14 9 14 20 0 11 7 20 15 20 10 0 15 10
15 33 0 25 -3 29 -10 17 -7 -11 -9 0 -4 36 5 38 3 55 -8 65 -21 19 -10 60 26
93 17 16 30 33 29 38 -2 4 8 10 22 14 14 3 22 10 19 15 -3 5 4 9 16 9 11 0 28
9 37 19 9 11 20 18 24 15 4 -2 10 5 14 16 3 11 15 20 25 20 13 0 17 5 14 14
-4 10 2 16 18 18 13 2 22 9 21 15 -1 6 9 23 23 38 27 29 27 31 8 123 -5 24
-11 32 -21 27 -19 -7 -43 12 -43 34 0 28 24 71 42 77 10 3 18 14 18 25 0 10 6
19 13 19 7 0 34 22 60 50 26 27 51 50 56 50 5 0 12 15 16 33 5 20 9 26 12 15
2 -10 13 -16 26 -16 36 2 46 16 40 54 -4 22 -2 34 6 34 6 0 11 -8 12 -17 0
-10 5 -3 10 15 10 33 23 41 33 20 3 -9 9 -7 20 6 9 11 16 14 16 8 0 -17 157
-17 162 0 7 19 38 -16 40 -44 2 -18 9 -25 27 -26 36 -3 61 -52 26 -52 -23 0
-18 -19 13 -48 36 -35 31 -62 -11 -62 -21 0 -36 -7 -45 -20 -7 -11 -21 -20
-32 -20 -16 0 -20 -7 -20 -34 0 -38 20 -62 37 -45 7 7 19 -2 40 -33 20 -30 37
-44 56 -46 19 -2 27 -9 26 -20 -3 -38 1 -63 12 -57 5 4 18 0 27 -8 9 -9 30
-17 46 -19 19 -2 30 -9 32 -21 4 -27 5 -27 70 -35 l59 -7 -45 -6 -45 -6 43 -1
c37 -2 42 -5 42 -26 0 -18 8 -27 30 -35 34 -11 41 -41 10 -41 -15 0 -20 -7
-20 -28 0 -38 -17 -52 -62 -52 -36 0 -49 -12 -28 -25 13 -8 13 -55 0 -55 -5 0
-10 -11 -10 -25 0 -19 5 -25 23 -25 13 0 28 -5 34 -11 14 -14 6 -39 -12 -39
-26 0 -26 -20 -2 -29 36 -14 51 -68 44 -160 -3 -42 -15 -96 -25 -121 -11 -25
-25 -85 -33 -135 -8 -59 -19 -97 -31 -110 -19 -20 -54 -120 -50 -142 2 -7 -5
-21 -15 -31 -33 -34 -54 -63 -65 -88 -6 -13 -14 -24 -18 -24 -9 0 -60 -105
-60 -123 0 -8 -7 -17 -15 -21 -8 -3 -15 -12 -15 -19 0 -23 -59 -97 -78 -97 -9
0 -22 -10 -27 -22 -6 -13 -20 -27 -32 -33 -13 -5 -23 -15 -23 -21 0 -13 -58
-73 -87 -90 -10 -6 -27 -25 -38 -42 -11 -17 -27 -31 -36 -32 -8 0 -25 -13 -37
-30 -15 -20 -37 -34 -67 -41 -25 -6 -45 -16 -45 -21 0 -5 -13 -14 -29 -19 -16
-6 -31 -19 -34 -30 -3 -11 -14 -19 -27 -19 -15 0 -20 -5 -18 -17 2 -10 10 -17
17 -15 22 5 41 -19 41 -50 0 -21 6 -31 20 -35 11 -3 20 -9 20 -14 0 -5 7 -9
15 -9 9 0 15 -9 15 -21 0 -22 22 -49 39 -49 6 0 11 -9 11 -19 0 -11 5 -21 11
-23 6 -2 13 -15 14 -28 4 -37 4 -37 23 -56 9 -10 17 -20 18 -23 5 -34 61 -111
80 -111 17 0 49 -35 49 -53 0 -7 15 -13 33 -15 26 -3 32 0 32 15 0 13 12 24
34 33 19 7 40 23 47 36 6 13 25 26 43 30 17 3 36 9 41 12 6 4 19 8 30 9 10 2
22 8 26 15 4 6 12 8 17 4 6 -4 16 3 22 14 11 20 68 56 83 52 4 -1 10 5 13 13
4 8 12 15 20 15 7 0 18 9 24 20 6 11 21 20 33 20 12 0 31 6 42 14 11 7 23 13
27 12 4 0 16 7 27 16 11 9 22 14 25 11 3 -4 6 -1 6 5 0 7 9 12 20 12 11 0 20
7 20 15 0 9 6 12 17 8 11 -4 14 -3 9 5 -5 8 3 12 23 12 17 0 31 4 31 8 0 8 46
35 62 36 3 1 10 4 14 9 4 4 16 7 26 7 10 0 26 4 36 9 34 18 139 35 218 36 45
0 77 -3 70 -7 -6 -5 -2 -8 12 -8 12 0 25 -7 28 -15 4 -9 19 -15 39 -15 19 0
37 -4 40 -10 8 -13 48 -13 62 1 8 8 13 5 18 -10 3 -12 13 -21 21 -21 17 0 18
22 2 38 -10 10 -10 17 0 33 10 16 10 24 1 35 -8 10 -8 14 0 14 6 0 11 5 11 11
0 5 -4 7 -10 4 -6 -4 -10 5 -10 20 0 34 -21 119 -31 125 -5 3 -14 41 -20 84
-9 61 -9 94 1 147 6 38 16 69 22 69 6 0 8 6 5 14 -3 8 1 20 9 26 8 7 14 21 14
32 0 10 9 28 20 40 11 12 20 28 20 35 0 7 6 13 14 13 8 0 18 9 21 20 3 11 11
20 16 20 5 0 9 6 9 13 0 6 24 37 52 67 29 30 52 58 53 61 0 11 70 69 82 69 7
0 21 9 30 19 9 11 21 17 26 14 6 -3 16 2 23 12 9 12 31 20 64 23 27 2 50 7 50
11 0 10 52 29 100 36 25 4 53 14 63 23 9 8 17 10 17 4 0 -13 40 -12 58 1 11 9
70 16 145 17 l27 0 0 1965 0 1965 -436 0 c-367 0 -435 -2 -431 -14 6 -15 -11
-95 -24 -111 -4 -6 -13 -42 -19 -80 -15 -95 -18 -103 -43 -111 -12 -4 -33 -15
-46 -25 -13 -10 -28 -16 -33 -13 -5 3 -12 -3 -15 -15 -3 -12 -11 -21 -19 -21
-26 0 -62 -23 -67 -42 -3 -11 -10 -17 -16 -14 -15 9 -27 -13 -30 -54 -1 -12
-8 -20 -20 -20 -10 0 -24 -7 -31 -15 -7 -8 -18 -15 -25 -15 -20 0 -75 -68 -75
-92 0 -16 -3 -18 -14 -9 -11 9 -15 8 -20 -5 -9 -22 -8 -26 5 -18 13 8 -27 -50
-53 -78 -22 -22 -23 -86 -3 -135 19 -45 19 -69 0 -77 -9 -3 -15 -19 -15 -41 0
-23 -5 -35 -14 -35 -9 0 -15 -16 -18 -47 -5 -57 3 -78 31 -80 11 -1 43 -20 72
-43 29 -23 65 -44 81 -47 16 -3 37 -17 47 -32 17 -23 46 -43 134 -88 15 -8 27
-19 27 -24 0 -5 13 -9 30 -9 21 0 34 -8 47 -27 26 -41 34 -47 81 -62 23 -8 40
-16 37 -19 -7 -7 38 -40 50 -36 17 7 34 -35 39 -90 2 -31 10 -54 20 -61 17
-13 23 -30 6 -20 -5 3 -10 -1 -10 -10 0 -8 7 -18 15 -21 12 -5 15 -24 15 -85
0 -64 3 -79 15 -79 11 0 15 -11 15 -40 0 -39 -1 -40 -37 -41 l-38 -2 35 -7 35
-7 -45 -3 -45 -3 45 -7 c41 -6 37 -7 -35 -10 l-80 -3 55 -7 55 -7 -55 -3 c-44
-3 -48 -4 -20 -7 54 -7 61 -23 9 -25 l-44 -1 45 -8 c40 -7 37 -7 -21 -5 -87 4
-100 -6 -92 -71 l6 -51 -56 -56 c-59 -61 -78 -67 -100 -35 -11 15 -16 17 -20
7 -3 -7 -8 1 -12 19 -5 22 -14 33 -29 35 -13 2 -22 11 -24 26 -2 12 -8 22 -13
22 -5 0 -8 3 -7 8 0 4 -2 15 -5 25 -4 9 -9 24 -12 32 -5 17 -40 20 -50 5 -4
-6 -57 -10 -126 -10 -73 0 -119 4 -119 10 0 6 -35 10 -84 10 -47 0 -87 4 -90
9 -3 5 -22 12 -41 15 -19 4 -39 16 -45 26 -6 11 -17 20 -25 20 -7 0 -16 14
-20 30 -4 17 -13 30 -21 30 -8 0 -14 9 -14 20 0 11 5 20 10 20 6 0 10 10 10
21 0 16 -3 19 -12 11 -7 -5 -29 -12 -48 -13 -19 -2 -39 -8 -43 -14 -6 -7 -10
-6 -13 2 -4 9 -11 9 -29 1 -14 -6 -22 -15 -19 -19 3 -5 -4 -9 -15 -9 -12 0
-21 -4 -21 -10 0 -6 -26 -10 -59 -10 -55 0 -59 -2 -65 -25 -4 -14 -11 -23 -16
-20 -6 3 -10 -3 -10 -14 0 -12 -5 -21 -10 -21 -6 0 -15 -11 -20 -25 -6 -15
-20 -27 -37 -30 -15 -4 -37 -11 -47 -17 -11 -5 -56 -12 -100 -13 -63 -3 -71
-2 -36 4 40 7 42 8 12 9 -43 2 -125 23 -132 33 -4 5 -26 11 -50 13 -25 2 -44
9 -42 15 1 6 -10 11 -24 11 -14 0 -23 -4 -19 -9 3 -5 1 -12 -5 -16 -6 -3 -13
1 -16 9 -4 10 -18 16 -38 16 -24 0 -27 -3 -16 -10 13 -8 12 -10 -2 -10 -10 0
-18 6 -18 13 0 9 -3 9 -9 -1 -5 -8 -17 -12 -27 -10 -11 2 -30 -7 -44 -19 -14
-13 -36 -23 -50 -23 -14 0 -30 -4 -36 -9 -12 -11 -94 -19 -94 -9 0 15 -21 8
-51 -19 -19 -17 -28 -34 -26 -45 3 -10 1 -18 -4 -18 -5 0 -9 6 -9 13 0 8 -3 9
-8 1 -13 -19 -42 -12 -42 10 0 22 50 86 67 86 11 0 4 68 -8 76 -8 5 -13 -18
-12 -53 1 -7 -4 -13 -9 -13 -6 0 -8 14 -6 30 3 17 1 30 -4 30 -4 0 -8 16 -8
36 0 21 4 33 10 29 6 -3 10 -2 10 3 0 5 11 21 25 36 13 14 19 26 14 26 -13 0
-1 42 14 52 16 10 13 176 -3 191 -10 10 -11 3 -7 -31 4 -36 1 -47 -20 -70 -14
-15 -20 -19 -13 -9 11 15 10 17 -4 11 -12 -4 -16 -1 -16 14 0 12 -11 32 -25
46 -23 23 -24 28 -12 48 21 35 16 72 -9 76 -16 2 -20 8 -17 23 3 10 0 19 -6
19 -6 0 -11 7 -11 16 0 10 -7 14 -22 12 -19 -3 -24 3 -31 37 -7 35 -13 88 -17
150 -1 11 -4 14 -7 8 -13 -34 -63 12 -56 51 6 32 -24 49 -39 22 -5 -9 -13 -14
-18 -11 -5 3 -11 1 -15 -5 -4 -6 5 -10 22 -10 25 -1 26 -2 11 -14 -10 -7 -18
-21 -18 -30 0 -14 -3 -14 -20 -4 -18 12 -19 13 -2 20 16 6 16 7 0 7 -23 1 -24
46 -2 59 13 7 12 11 -10 26 -15 9 -26 12 -26 6 0 -6 -4 -8 -10 -5 -16 10 -12
75 5 81 8 4 12 10 9 15 -3 5 0 9 7 9 7 0 3 9 -9 20 -12 11 -33 20 -47 20 -14
0 -25 5 -25 10 0 6 8 10 18 10 14 0 19 9 20 38 2 20 7 38 12 40 6 2 10 30 10
63 0 57 1 59 26 59 31 0 28 20 -4 35 -12 5 -22 18 -22 27 0 20 -26 24 -33 6
-3 -7 -6 2 -6 20 -1 26 3 32 19 32 11 0 20 5 20 10 0 6 -8 10 -17 8 -11 -2
-18 3 -18 12 0 9 7 14 18 12 12 -2 17 4 17 19 0 16 -5 20 -20 16 -13 -3 -20 0
-21 9 -1 8 -3 19 -4 24 -1 6 -3 16 -4 23 -1 8 -4 7 -11 -3 -8 -13 -10 -12 -11
5 -1 11 -3 25 -4 30 -2 6 -3 28 -4 49 0 22 -4 37 -7 33 -10 -9 -30 15 -39 48
l-9 30 -5 -35 c-5 -28 -8 -31 -14 -17 -4 10 -7 31 -7 45 -1 29 -23 66 -33 55
-4 -3 -7 24 -7 60 0 60 -11 87 -23 55 -2 -7 -12 4 -21 26 -18 44 -20 66 -6 66
6 0 10 33 10 80 l0 80 -925 0 c-616 0 -925 -3 -925 -10 0 -5 -8 -11 -17 -12
-10 -1 7 -4 37 -8 54 -7 53 -7 -30 -10 -65 -2 -76 -4 -45 -9 23 -3 35 -9 28
-14 -12 -7 -32 -3 -72 16 -19 9 -25 8 -36 -6 -7 -9 -17 -17 -23 -17 -6 0 -13
-9 -17 -19 -5 -16 -19 -21 -70 -26 -35 -4 -69 -5 -77 -2 -7 3 5 6 27 7 22 1
51 5 65 10 23 7 24 8 6 15 -13 6 -21 4 -24 -3 -2 -7 -22 -12 -45 -11 -34 0
-38 2 -22 9 14 7 8 8 -20 3 -48 -7 -55 -10 -55 -27 0 -17 -67 -19 -102 -3 -16
6 -28 18 -28 24 0 7 -7 13 -15 13 -9 0 -15 10 -15 26 0 14 -4 23 -10 19 -6 -3
-10 3 -10 14 l0 21 -2685 0 -2685 0 0 -660z m5258 -304 c2 -45 -1 -61 -14 -70
-13 -10 -14 -15 -4 -21 9 -6 11 -4 5 6 -6 10 -5 11 3 4 6 -6 9 -20 5 -33 -5
-20 -7 -21 -18 -6 -11 16 -12 16 -18 0 -4 -9 -13 -16 -21 -16 -23 0 -59 -42
-44 -51 19 -12 -26 -54 -75 -69 -54 -17 -73 -34 -81 -70 -5 -28 -44 -77 -57
-73 -3 1 -5 -9 -3 -22 1 -13 -1 -24 -4 -24 -24 4 -33 -3 -28 -17 4 -9 0 -26
-7 -38 -8 -12 -17 -34 -21 -51 -4 -16 -14 -45 -23 -63 -11 -24 -14 -47 -8 -90
4 -31 8 -68 10 -82 9 -88 35 -186 45 -171 3 6 11 2 17 -8 10 -16 8 -19 -17
-25 -23 -4 -31 -13 -39 -41 -5 -20 -8 -42 -5 -49 3 -8 -2 -21 -11 -29 -9 -9
-18 -30 -20 -46 -2 -16 -8 -38 -14 -49 -6 -12 -11 -37 -11 -57 0 -29 -3 -36
-15 -31 -12 4 -15 -6 -15 -59 0 -37 -4 -65 -10 -65 -5 0 -10 16 -10 36 0 19
-4 33 -9 30 -4 -3 -13 13 -20 34 -9 31 -17 40 -34 40 -12 0 -31 2 -42 4 -11 2
-14 1 -7 -1 17 -6 15 -23 -3 -23 -9 0 -18 7 -21 15 -4 8 -13 15 -21 15 -21 0
-43 25 -43 49 0 13 -8 21 -22 23 -18 2 -22 9 -20 31 3 28 -6 35 -25 16 -8 -8
-13 0 -18 29 -3 22 -13 43 -21 46 -9 3 -14 20 -14 46 0 22 -5 40 -11 40 -6 0
-9 7 -6 15 4 8 2 17 -4 20 -5 4 -7 11 -4 16 4 5 -6 9 -22 10 -25 0 -26 1 -8 9
19 8 19 9 -2 9 -18 1 -21 6 -17 30 4 22 -1 33 -16 44 -14 10 -24 30 -27 59 -4
23 -12 52 -18 63 -33 53 -6 176 51 233 22 22 36 48 40 72 4 22 14 47 23 57 9
10 20 26 24 36 3 9 12 16 19 15 7 -2 14 7 16 20 2 12 9 21 15 20 16 -4 87 53
87 70 0 6 7 12 15 12 8 0 15 5 15 10 0 6 9 10 21 10 27 0 42 17 56 60 6 19 11
27 12 18 1 -10 6 -18 12 -18 5 0 8 4 5 8 -2 4 0 14 5 22 8 13 10 13 19 0 6
-10 10 -11 10 -2 0 8 18 12 54 12 47 0 59 4 84 30 19 19 41 30 59 30 22 0 25
2 13 10 -11 7 -6 10 20 10 42 0 80 20 40 20 -19 0 -22 2 -10 10 8 5 68 8 135
7 l120 -2 3 -59z m1902 45 c0 -6 -4 -13 -10 -16 -5 -3 -10 1 -10 9 0 9 5 16
10 16 6 0 10 -4 10 -9z m489 -27 c2 -2 -7 -4 -22 -4 -14 0 -29 5 -32 10 -6 10
42 4 54 -6z m-2269 -14 c0 -5 -8 -10 -17 -10 -15 0 -16 2 -3 10 19 12 20 12
20 0z m-2680 -20 c-6 -11 -8 -25 -4 -31 4 -6 13 2 21 20 13 27 21 31 54 31 22
0 39 -4 39 -9 0 -4 12 -7 27 -5 40 4 48 -8 48 -73 0 -55 -1 -58 -25 -60 -14 0
-32 -1 -40 -2 -12 -1 -14 -16 -12 -86 3 -80 2 -85 -17 -85 -17 0 -21 6 -21 30
0 17 -4 30 -10 30 -5 0 -10 7 -10 16 0 8 -7 22 -15 30 -8 9 -15 13 -15 10 0
-3 -15 0 -32 7 l-33 13 3 70 c2 38 7 70 12 72 4 2 6 12 3 22 -4 15 0 20 16 20
19 0 20 -3 11 -20z m2655 -12 c6 -6 4 -7 -6 -3 -9 3 -23 -3 -34 -15 -21 -23
-46 -27 -40 -5 3 8 7 22 10 30 5 16 50 12 70 -7z m31 -6 c-18 -16 -18 -16 -6
6 6 13 14 21 18 18 3 -4 -2 -14 -12 -24z m2445 -60 c14 -38 2 -40 -30 -5 -16
18 -27 34 -24 36 11 12 45 -8 54 -31z m-5190 -35 c-8 -8 -11 -4 -11 14 0 33
14 47 18 19 2 -12 -1 -27 -7 -33z m5294 33 c3 -5 1 -10 -4 -10 -6 0 -11 5 -11
10 0 6 2 10 4 10 3 0 8 -4 11 -10z m15 -35 c14 -8 21 -14 15 -14 -5 0 -21 6
-35 14 -14 8 -20 14 -15 14 6 0 21 -6 35 -14z m-75 -75 c3 -5 1 -10 -4 -10 -6
0 -11 5 -11 10 0 6 2 10 4 10 3 0 8 -4 11 -10z m-4905 -20 c0 -5 -13 -10 -30
-10 -16 0 -30 5 -30 10 0 6 14 10 30 10 17 0 30 -4 30 -10z m2130 -54 c0 -3
-4 -8 -10 -11 -5 -3 -10 -1 -10 4 0 6 5 11 10 11 6 0 10 -2 10 -4z m3107 -203
c-3 -10 -5 -2 -5 17 0 19 2 27 5 18 2 -10 2 -26 0 -35z m-3226 -76 c-10 -9
-11 -8 -5 6 3 10 9 15 12 12 3 -3 0 -11 -7 -18z m-99 -65 c-7 -2 -12 -11 -12
-19 0 -10 6 -13 15 -9 23 8 32 -24 12 -39 -10 -7 -17 -20 -17 -29 0 -28 -20
-17 -22 12 -3 68 6 107 24 96 9 -6 9 -9 0 -12z m-2405 -89 c-2 -16 -4 -3 -4
27 0 30 2 43 4 28 2 -16 2 -40 0 -55z m2440 -50 c1 -19 -1 -22 -8 -12 -7 11
-9 11 -9 -3 0 -10 -4 -18 -10 -18 -13 0 -13 16 0 41 15 27 25 24 27 -8z
m-2430 -155 c-3 -8 -6 -5 -6 6 -1 11 2 17 5 13 3 -3 4 -12 1 -19z m5914 -31
c-8 -8 -11 -3 -11 19 1 25 2 27 11 11 8 -14 8 -22 0 -30z m-77 -230 l-16 -22
6 25 c3 14 6 32 6 40 1 12 3 11 11 -3 7 -13 6 -23 -7 -40z m-1896 11 c15 -6
52 -12 82 -14 30 -1 75 -9 100 -18 25 -9 64 -16 87 -16 23 0 44 -4 47 -9 3 -5
43 -10 89 -13 78 -4 87 -7 125 -39 23 -19 42 -40 42 -47 0 -8 8 -10 25 -6 17
4 32 1 43 -9 12 -11 37 -15 84 -15 51 1 75 -4 102 -20 20 -12 36 -17 36 -12 0
15 43 12 67 -5 19 -14 21 -22 16 -65 -5 -41 -3 -50 10 -50 23 0 29 -15 16 -44
-9 -19 -9 -36 -1 -63 10 -38 -3 -141 -21 -159 -4 -4 -7 -24 -7 -45 0 -21 -4
-40 -9 -43 -5 -4 -12 -43 -15 -89 -13 -161 -9 -188 34 -254 16 -22 31 -50 35
-61 3 -12 23 -29 44 -39 32 -15 41 -26 54 -68 21 -65 38 -144 37 -175 0 -14 0
-36 0 -50 -1 -74 1 -94 15 -127 9 -20 15 -66 15 -109 0 -40 5 -76 10 -79 6 -4
7 -13 1 -23 -4 -9 -11 -41 -14 -69 -4 -32 -14 -61 -26 -74 -11 -12 -27 -36
-35 -53 -9 -17 -24 -44 -36 -61 -25 -37 -27 -70 -4 -61 15 6 15 3 -1 -20 -12
-18 -16 -39 -12 -64 3 -21 0 -43 -5 -48 -6 -6 -9 -39 -6 -75 3 -53 1 -67 -13
-75 -12 -8 -16 -25 -16 -67 0 -66 -8 -79 -24 -39 l-11 29 -13 -35 c-19 -49
-18 -96 2 -115 9 -10 12 -20 7 -23 -13 -9 -34 -82 -34 -117 0 -16 -3 -25 -7
-21 -8 8 -9 13 -12 41 0 8 -8 15 -16 15 -17 0 -20 25 -5 35 15 9 12 38 -2 32
-9 -3 -13 10 -14 47 -3 92 -24 291 -33 311 -5 11 -12 28 -15 38 -9 27 -23 12
-30 -32 -4 -26 -14 -44 -26 -51 -11 -6 -20 -20 -20 -30 0 -15 -7 -20 -25 -20
-29 0 -59 42 -76 105 -10 37 -16 43 -84 74 -40 18 -79 31 -86 29 -15 -5 -144
55 -154 72 -3 6 -27 21 -53 34 -26 13 -56 33 -66 45 -11 12 -24 21 -31 21 -7
0 -20 9 -31 21 -27 30 -219 119 -257 119 -20 0 -57 -26 -57 -41 0 -4 16 -16
35 -28 46 -27 64 -71 58 -138 -5 -51 -6 -52 -42 -57 -79 -12 -115 -5 -207 40
-50 24 -98 44 -108 44 -23 0 -116 48 -116 60 0 6 -6 10 -14 10 -8 0 -21 6 -28
13 -34 34 -170 51 -196 25 -19 -19 -62 -18 -62 2 0 18 65 80 84 80 7 0 22 9
34 20 17 16 22 32 22 73 0 29 -5 58 -12 65 -10 9 -9 16 4 28 13 13 22 14 58 4
38 -10 45 -9 64 9 28 26 94 184 103 248 3 21 18 44 38 62 18 16 35 39 37 52 2
16 13 27 33 34 17 5 37 17 46 27 13 14 19 15 40 5 19 -10 26 -23 32 -67 4 -30
12 -77 18 -105 22 -102 26 -106 53 -45 20 46 31 45 39 -3 6 -39 57 -97 84 -97
11 0 28 -9 38 -20 10 -11 22 -20 27 -20 5 0 31 -16 59 -35 28 -19 55 -35 60
-35 5 0 28 -8 52 -19 89 -40 107 -44 155 -36 54 8 127 8 190 0 27 -4 42 -2 42
4 0 6 -12 11 -26 11 -23 0 -25 2 -13 16 10 13 10 17 -2 25 -11 8 -9 9 6 5 11
-3 39 -9 62 -14 29 -7 62 -27 107 -68 36 -31 66 -61 66 -66 0 -4 7 -8 15 -8
21 0 51 -32 59 -64 3 -14 11 -26 16 -26 13 0 13 4 -4 43 -7 18 -27 44 -44 59
-17 15 -29 33 -27 40 2 7 -1 21 -9 30 -14 18 -165 98 -185 98 -7 0 -10 4 -7 9
9 14 -20 21 -33 8 -8 -8 -19 -7 -40 6 -16 9 -40 17 -54 17 -13 0 -30 6 -36 14
-6 8 -26 16 -44 19 -45 8 -113 24 -106 26 4 0 29 5 57 11 28 5 98 10 156 11
102 2 106 1 132 -25 34 -33 25 -46 -12 -17 -31 25 -44 27 -44 7 0 -11 -9 -13
-37 -9 -29 4 -35 3 -27 -6 10 -11 72 -19 204 -25 73 -4 146 -24 193 -53 22
-14 42 -22 45 -19 10 10 -30 34 -103 62 -94 36 -100 44 -33 44 40 0 59 5 69
17 13 15 11 16 -16 9 -51 -12 -151 -4 -169 14 -7 7 5 10 36 10 59 0 108 10
108 22 0 6 -26 9 -62 7 -60 -4 -63 -3 -66 19 -3 22 -1 23 45 21 76 -4 81 4 54
98 -8 29 -16 41 -25 37 -8 -3 -17 3 -21 15 -3 11 -14 22 -23 26 -9 3 -37 23
-61 45 -24 21 -57 42 -75 45 -54 11 -85 26 -91 46 -8 24 -74 89 -90 89 -7 0
-15 6 -18 14 -3 7 -26 19 -52 25 -26 7 -69 23 -96 36 -40 21 -63 25 -131 25
-61 0 -95 6 -127 20 -55 26 -115 26 -133 2 -23 -32 -35 -33 -67 -7 -37 32
-116 44 -161 25 -27 -11 -34 -10 -68 13 -42 29 -124 67 -144 67 -7 0 -28 9
-45 20 -18 11 -48 19 -66 18 -19 -1 -48 6 -65 15 -19 9 -62 16 -109 17 -119 3
-123 2 -123 -20 0 -17 -7 -20 -49 -20 -34 0 -69 -9 -113 -30 -71 -34 -88 -37
-88 -15 0 31 39 77 86 102 98 51 135 114 72 121 -16 2 -28 7 -28 12 0 4 12 10
28 13 15 3 37 7 49 10 12 3 82 8 155 12 164 8 206 16 128 25 -78 10 -163 43
-148 58 9 9 9 12 0 12 -14 0 17 35 33 38 6 0 39 8 75 18 36 9 70 17 75 19 23
5 51 19 67 33 10 8 27 12 39 9 27 -7 59 8 59 28 0 23 13 25 116 10 113 -16
130 -18 121 -8 -9 8 -87 23 -157 30 -40 4 -65 13 -91 34 -20 16 -44 29 -53 29
-10 0 -16 9 -16 25 0 18 -7 26 -25 31 -14 3 -25 10 -25 16 0 5 4 7 9 4 5 -4
17 -3 26 0 13 5 14 9 4 15 -10 6 -9 9 6 14 11 4 35 13 53 21 18 8 47 14 63 14
36 0 164 28 195 42 15 7 39 7 74 -1 45 -10 56 -9 70 4 9 8 24 15 33 15 9 0 19
5 23 11 8 13 110 4 152 -13z m4280 5 c-10 -2 -28 -2 -40 0 -13 2 -5 4 17 4 22
1 32 -1 23 -4z m-795 -20 c-13 -2 -33 -2 -45 0 -13 2 -3 4 22 4 25 0 35 -2 23
-4z m60 -40 c-24 -2 -62 -2 -85 0 -24 2 -5 4 42 4 47 0 66 -2 43 -4z m-5157
-120 c7 -10 13 -27 13 -38 0 -17 -2 -16 -10 5 -8 20 -12 22 -19 10 -7 -11 -10
-8 -10 13 0 31 7 34 26 10z m983 -73 c33 0 29 -48 -5 -56 -31 -8 -44 3 -50 45
-5 30 -4 32 15 22 11 -6 29 -11 40 -11z m2511 -10 c-6 -11 -20 -25 -31 -31
-17 -9 -20 -8 -14 3 24 41 67 68 45 28z m-3453 -66 c-3 -3 -12 -4 -19 -1 -8 3
-5 6 6 6 11 1 17 -2 13 -5z m3346 -261 c-7 -2 -19 -2 -25 0 -7 3 -2 5 12 5 14
0 19 -2 13 -5z m1560 -350 c-7 -2 -19 -2 -25 0 -7 3 -2 5 12 5 14 0 19 -2 13
-5z m-7556 -45 c-3 -8 -6 -5 -6 6 -1 11 2 17 5 13 3 -3 4 -12 1 -19z m5911
-312 c69 -36 93 -110 92 -284 -1 -115 -22 -218 -42 -206 -13 8 -9 127 7 180
24 82 -7 186 -59 200 -25 6 -99 -1 -115 -10 -5 -3 -12 8 -16 25 -4 18 -3 34 3
38 5 3 12 17 13 31 6 37 69 51 117 26z m-2848 -183 c14 -13 28 -23 31 -23 4 0
12 -13 19 -30 7 -16 20 -32 30 -35 13 -4 18 -14 17 -32 -1 -14 4 -28 11 -30 7
-3 12 4 12 16 0 25 7 26 84 4 68 -19 85 -34 86 -78 0 -40 -9 -51 -45 -57 -16
-3 -81 -18 -144 -32 -87 -21 -116 -24 -122 -15 -4 7 -24 12 -43 11 -30 -1 -38
3 -46 23 -5 14 -16 25 -25 25 -9 0 -20 11 -25 25 -5 14 -15 25 -21 25 -8 0
-10 17 -7 52 4 38 12 57 28 70 14 11 17 18 9 18 -12 0 -11 2 0 9 12 8 10 18
-10 60 -13 27 -31 52 -39 54 -10 2 -4 10 18 24 l34 21 61 -41 c34 -23 73 -51
87 -64z m-377 -88 c-3 -9 -8 -14 -10 -11 -3 3 -2 9 2 15 9 16 15 13 8 -4z
m2704 -22 c-3 -10 -5 -4 -5 12 0 17 2 24 5 18 2 -7 2 -21 0 -30z m41 -10 c14
-30 16 -46 5 -40 -5 3 -8 -8 -9 -23 -1 -16 -8 -36 -18 -45 -15 -15 -16 -13
-16 28 0 52 10 107 19 107 3 0 12 -12 19 -27z m292 17 c0 -5 -2 -10 -4 -10 -3
0 -8 5 -11 10 -3 6 -1 10 4 10 6 0 11 -4 11 -10z m-246 -17 c16 -58 17 -83 4
-81 -20 5 -28 20 -28 61 0 38 15 51 24 20z m147 -110 c-8 -15 -10 -15 -11 -2
0 17 10 32 18 25 2 -3 -1 -13 -7 -23z m-146 -34 c4 -11 4 -23 1 -26 -3 -4 -6
-1 -6 5 0 7 -5 12 -12 12 -6 0 -4 -8 6 -19 22 -24 1 -46 -27 -27 -22 17 -22
35 1 57 23 23 29 23 37 -2z m-15 -89 c0 -5 -5 -10 -11 -10 -5 0 -7 5 -4 10 3
6 8 10 11 10 2 0 4 -4 4 -10z m198 -162 c-5 -37 -28 -33 -28 5 0 18 3 37 7 41
10 10 25 -21 21 -46z m-271 0 c-3 -7 -5 -2 -5 12 0 14 2 19 5 13 2 -7 2 -19 0
-25z m-1211 -246 c-22 -5 -30 3 -21 18 5 8 11 7 22 -2 15 -12 14 -13 -1 -16z
m781 -184 c-3 -7 -5 -2 -5 12 0 14 2 19 5 13 2 -7 2 -19 0 -25z m-2380 -150
c-3 -7 -5 -2 -5 12 0 14 2 19 5 13 2 -7 2 -19 0 -25z m2613 12 c0 -11 -4 -20
-9 -20 -5 0 -7 9 -4 20 3 11 7 20 9 20 2 0 4 -9 4 -20z m-240 -5 c0 -8 -4 -15
-10 -15 -5 0 -10 7 -10 15 0 8 5 15 10 15 6 0 10 -7 10 -15z m-3 -57 c-3 -7
-5 -2 -5 12 0 14 2 19 5 13 2 -7 2 -19 0 -25z m-1337 -24 c21 -5 35 -15 41
-32 l10 -25 20 21 c28 31 113 31 130 1 l11 -21 19 21 c11 12 23 21 27 21 26
-1 52 -15 58 -32 4 -13 10 -16 17 -10 7 5 25 12 41 16 37 9 46 -4 46 -70 0
-40 -5 -55 -24 -73 -16 -15 -26 -19 -31 -12 -3 6 -10 9 -15 6 -4 -3 -13 1 -19
9 -10 12 -16 12 -40 0 -22 -11 -36 -12 -56 -4 -20 8 -38 7 -63 -1 -27 -9 -44
-8 -76 1 -22 7 -60 12 -83 11 -43 -2 -92 22 -93 45 0 15 -38 25 -46 13 -3 -5
-11 -9 -17 -9 -7 0 -6 4 3 10 10 6 11 10 3 10 -18 0 -26 41 -14 73 12 31 28
34 47 10 12 -17 14 -17 34 5 23 24 24 25 70 16z m494 -111 c8 -20 -27 -59 -43
-49 -6 4 -11 18 -11 31 0 21 9 28 41 34 4 0 10 -7 13 -16z m146 -93 c0 -5 -4
-10 -10 -10 -5 0 -10 -11 -10 -25 0 -14 4 -25 10 -25 5 0 9 -17 8 -37 -1 -21
2 -46 6 -55 6 -13 3 -20 -10 -25 -21 -7 -54 -41 -54 -54 0 -7 -30 -6 -50 1 -3
2 -8 2 -11 2 -4 -1 -6 13 -5 31 l1 32 -70 0 -70 0 0 29 c-1 24 -6 31 -30 38
-17 4 -43 3 -60 -2 -131 -40 -233 -48 -283 -21 -11 6 -32 11 -45 11 -14 0 -35
9 -48 20 l-24 19 26 1 c23 0 26 3 21 26 -4 25 -3 25 34 18 22 -3 47 -14 57
-22 13 -11 20 -13 25 -5 10 16 84 21 90 5 5 -16 20 -15 39 3 8 9 18 13 21 10
4 -3 0 -10 -8 -15 -13 -8 -12 -10 2 -10 9 0 20 5 23 10 3 6 19 10 35 10 16 0
40 4 53 9 32 12 114 21 122 13 3 -3 18 -6 33 -7 16 0 26 -5 25 -12 -3 -13 12
-9 57 14 14 7 33 13 42 13 9 0 20 5 23 10 3 6 13 10 21 10 8 0 14 -4 14 -10z
m-290 -180 c0 -5 -5 -10 -11 -10 -5 0 -7 5 -4 10 3 6 8 10 11 10 2 0 4 -4 4
-10z m201 -204 c-8 -10 -7 -17 4 -26 8 -7 15 -26 15 -42 0 -25 -3 -28 -20 -23
-10 3 -32 -1 -48 -9 -37 -19 -45 -11 -27 25 8 15 15 35 15 43 0 8 8 19 18 25
9 5 16 12 15 15 -2 3 0 5 3 4 3 -2 11 6 17 17 10 18 12 19 15 2 2 -10 -1 -24
-7 -31z m1028 -7 c-6 -19 -13 -41 -16 -49 -3 -8 -7 -21 -9 -29 -1 -8 -9 -18
-16 -22 -11 -7 -10 -11 2 -18 8 -6 12 -12 10 -15 -3 -2 -16 4 -30 14 -19 15
-21 20 -8 20 16 0 48 73 48 111 0 14 19 31 28 24 1 -1 -3 -17 -9 -36z m-129
27 c0 -3 -4 -8 -10 -11 -5 -3 -10 -1 -10 4 0 6 5 11 10 11 6 0 10 -2 10 -4z
m-1044 -141 c10 -8 29 -15 42 -15 18 0 22 -5 22 -35 0 -37 -25 -60 -50 -45
-20 12 -32 2 -25 -20 5 -17 2 -18 -28 -13 -31 5 -35 2 -41 -21 -4 -15 -11 -24
-17 -21 -5 4 -16 1 -24 -5 -11 -9 -15 -9 -15 -1 0 6 5 11 12 11 26 0 -4 13
-38 16 -29 3 -35 1 -26 -8 7 -7 12 -16 12 -20 0 -12 -48 -10 -55 3 -4 5 -18
14 -31 19 -34 13 -30 39 7 47 21 4 27 9 20 16 -6 6 -11 21 -11 34 0 27 25 31
39 6 9 -17 11 -17 24 1 17 23 66 15 68 -12 1 -9 2 -21 4 -27 1 -5 3 -16 3 -22
1 -7 8 -13 16 -13 9 0 13 8 9 23 -4 21 -4 22 11 3 16 -19 16 -19 16 1 0 22 31
40 49 28 18 -10 7 40 -11 53 -19 14 -24 32 -10 32 5 0 17 -7 28 -15z m1068
-26 c-3 -5 -10 -7 -15 -3 -5 3 -7 10 -3 15 3 5 10 7 15 3 5 -3 7 -10 3 -15z
m949 4 c-7 -2 -21 -2 -30 0 -10 3 -4 5 12 5 17 0 24 -2 18 -5z m-904 -45 c-5
-18 -9 -34 -9 -35 0 -2 -5 -3 -11 -3 -6 0 -8 7 -5 16 6 15 4 15 -19 0 -14 -9
-25 -15 -26 -14 -5 17 -3 58 3 58 4 0 8 -6 9 -12 0 -10 2 -10 6 -1 3 9 10 10
24 3 15 -8 19 -7 19 5 0 8 4 15 9 15 6 0 6 -12 0 -32z m-34 -114 c-29 -105
-36 -124 -46 -124 -12 0 1 53 15 62 7 5 6 8 -3 8 -10 0 -10 5 3 25 9 14 12 25
7 25 -16 0 -19 49 -3 71 13 18 16 19 29 6 13 -12 12 -22 -2 -73z m-1395 57
c13 -26 -5 -38 -26 -17 -9 9 -20 14 -25 11 -5 -4 -9 -2 -9 3 0 28 45 30 60 3z
m-2187 -118 c-7 -2 -19 -2 -25 0 -7 3 -2 5 12 5 14 0 19 -2 13 -5z m227 -47
c0 -3 -4 -8 -10 -11 -5 -3 -10 -1 -10 4 0 6 5 11 10 11 6 0 10 -2 10 -4z
m3230 -126 c0 -5 -2 -10 -4 -10 -3 0 -8 5 -11 10 -3 6 -1 10 4 10 6 0 11 -4
11 -10z m-30 -4 c0 -9 -30 -14 -35 -6 -4 6 3 10 14 10 12 0 21 -2 21 -4z m-20
-36 c0 -5 -7 -10 -16 -10 -8 0 -12 5 -9 10 3 6 10 10 16 10 5 0 9 -4 9 -10z
m-1089 -949 c30 -10 109 -46 176 -80 67 -33 126 -61 133 -61 6 0 22 12 36 28
l24 27 18 -21 c9 -12 24 -35 33 -51 11 -21 43 -43 110 -76 126 -63 189 -114
299 -246 51 -61 96 -111 100 -111 19 0 204 -195 266 -280 37 -52 100 -134 139
-182 38 -48 90 -119 115 -159 25 -39 68 -95 97 -123 46 -46 153 -205 153 -229
0 -5 6 -7 14 -4 8 3 20 -1 27 -9 20 -24 -10 -107 -39 -109 -25 -2 -41 30 -23
48 6 6 11 15 11 21 0 19 -48 -36 -66 -77 -10 -23 -39 -67 -64 -97 -25 -31 -54
-73 -65 -94 -24 -47 -174 -198 -188 -189 -6 3 -7 1 -3 -5 3 -6 -7 -20 -23 -31
-37 -26 -161 -30 -181 -6 -7 8 -20 15 -29 15 -9 0 -25 6 -36 13 -53 37 -141
78 -173 82 -19 2 -53 18 -73 35 -21 17 -58 39 -82 49 -24 11 -60 33 -79 50
-39 34 -110 63 -132 55 -9 -3 -22 10 -37 38 -19 34 -34 46 -74 61 -28 10 -68
35 -90 56 -22 21 -54 43 -70 48 -17 6 -47 22 -69 36 -21 15 -54 29 -75 33 -99
16 -301 123 -301 159 0 8 15 28 33 45 l32 32 86 -7 c81 -5 87 -4 92 15 10 38
107 20 107 -20 0 -16 -7 -20 -38 -20 -26 0 -45 -7 -57 -20 -10 -11 -16 -22
-14 -24 21 -18 105 -56 136 -61 61 -10 140 -53 147 -79 3 -13 25 -38 48 -55
24 -17 64 -47 91 -66 45 -33 97 -47 97 -25 0 6 7 10 15 10 8 0 15 -9 15 -19 0
-27 30 -55 43 -42 18 18 41 12 76 -19 37 -34 43 -33 61 10 12 29 15 31 56 27
33 -4 44 -2 44 9 0 8 -3 13 -7 13 -5 -1 -10 0 -13 1 -15 5 -47 11 -62 11 -10
0 -18 7 -18 14 0 32 -26 66 -63 82 -47 21 -74 64 -52 83 8 7 15 9 15 4 0 -5 8
1 18 12 9 12 26 26 37 32 21 12 26 11 -105 17 -19 0 -65 2 -103 3 l-67 2 -65
66 c-36 37 -65 68 -65 70 0 2 7 4 15 4 20 0 20 61 1 98 -8 15 -17 44 -21 65
-7 36 -7 37 25 37 39 0 30 15 -27 45 -21 11 -46 27 -56 36 -16 15 -17 18 -3
32 10 9 24 13 38 9 35 -9 126 -70 138 -92 6 -11 17 -20 24 -20 7 0 21 -9 31
-20 10 -11 26 -20 37 -20 10 0 18 -4 18 -8 0 -5 6 -9 13 -9 16 0 67 -33 67
-43 0 -4 11 -11 25 -14 14 -4 32 -18 41 -32 9 -14 29 -31 43 -39 14 -7 39 -26
54 -40 15 -15 32 -25 38 -23 6 2 -31 48 -80 103 -50 55 -97 107 -104 115 -7 8
-32 31 -56 50 -24 19 -55 52 -68 72 -13 21 -40 49 -61 62 -20 14 -59 45 -87
70 -27 26 -55 44 -62 42 -7 -3 -13 -1 -13 5 0 6 -7 9 -15 5 -11 -4 -15 2 -15
20 0 17 -17 45 -50 81 -27 30 -50 59 -50 64 0 14 -97 59 -127 59 -16 0 -37 6
-48 14 -11 7 -37 16 -58 20 -22 4 -74 23 -117 42 -43 19 -87 34 -99 34 -11 0
-23 5 -26 10 -3 6 -18 10 -32 10 -23 0 -25 3 -19 32 8 41 7 40 63 43 31 1 76
-8 128 -26 225 -77 317 -98 341 -78 20 16 115 6 189 -21 33 -12 75 -23 94 -25
l33 -3 -5 39 c-4 27 -14 46 -32 61 -21 16 -26 27 -21 48 5 26 1 29 -62 58 -37
17 -82 33 -101 37 -18 4 -42 16 -54 28 -15 15 -31 20 -60 18 -30 -2 -42 2 -53
17 -8 11 -27 23 -43 27 -15 3 -38 15 -49 25 -12 11 -27 20 -34 20 -8 0 -22 23
-33 51 -12 31 -29 56 -42 62 -46 21 -24 42 48 46 14 0 50 -7 80 -18z m-427
-395 c-21 -15 -30 -14 -19 3 3 6 14 11 23 11 13 0 13 -2 -4 -14z m-52 -28 c-7
-7 -12 -8 -12 -2 0 14 12 26 19 19 2 -3 -1 -11 -7 -17z m28 -34 c0 -8 -4 -14
-10 -14 -5 0 -10 9 -10 21 0 11 5 17 10 14 6 -3 10 -13 10 -21z m0 -275 c58
-22 116 -44 130 -49 14 -4 47 -17 73 -29 27 -12 62 -21 77 -21 16 0 32 -4 35
-10 3 -5 20 -10 36 -10 16 0 47 -9 69 -20 21 -11 63 -29 92 -40 76 -28 109
-58 111 -99 3 -47 -19 -59 -72 -41 -32 10 -47 11 -66 2 -25 -11 -71 0 -86 21
-8 11 -107 47 -159 57 -89 18 -105 23 -123 38 -10 9 -30 18 -44 20 -15 2 -34
7 -42 11 -9 5 -36 12 -61 16 -25 4 -52 13 -60 20 -8 7 -24 15 -35 17 -11 1
-34 13 -52 25 -38 28 -83 47 -101 44 -25 -4 21 60 53 74 55 24 113 18 225 -26z
m-489 -389 c116 -57 151 -70 190 -70 42 0 50 -3 61 -27 8 -17 22 -27 38 -29
14 -1 36 -5 50 -8 14 -4 41 -9 60 -12 19 -3 42 -8 50 -11 48 -18 112 -32 160
-34 74 -3 85 -7 85 -34 0 -14 -6 -25 -12 -25 -7 0 -13 -5 -13 -11 0 -8 -12 -9
-37 -4 -21 4 -54 9 -73 11 -94 9 -152 23 -222 57 -43 20 -82 37 -86 37 -5 0
-15 7 -22 15 -7 8 -21 15 -32 15 -15 0 -18 -5 -13 -20 5 -15 3 -18 -9 -14 -9
3 -16 10 -16 15 0 13 -78 11 -115 -2 -38 -14 -85 -5 -85 17 0 8 -5 12 -11 8
-8 -4 -8 0 0 15 10 18 9 22 -6 27 -10 3 -33 12 -51 20 -18 8 -39 14 -48 14 -8
0 -18 10 -23 22 l-8 23 -7 -22 c-8 -25 -37 -34 -76 -23 -20 6 -30 5 -34 -3 -2
-7 -5 1 -5 16 -2 66 42 106 116 107 45 0 73 -10 194 -70z m1107 -62 c7 -7 12
-16 12 -20 0 -15 -15 -8 -28 12 -13 22 -3 27 16 8z m122 -99 c0 -13 -24 -11
-45 4 -28 21 -9 40 21 21 13 -9 24 -20 24 -25z m-5 -79 c30 -15 34 -20 17 -20
-32 0 -112 23 -112 32 0 15 56 8 95 -12z m161 -190 c2 0 21 -22 43 -49 21 -28
41 -47 45 -44 3 4 6 2 6 -4 0 -25 -15 -17 -64 33 -30 31 -61 54 -73 54 -12 0
-23 8 -26 20 -5 19 -3 19 30 5 20 -8 37 -15 39 -15z m-179 -143 c18 -20 18
-20 -12 -13 -51 13 -79 48 -31 39 14 -3 33 -14 43 -26z m473 -7 c0 -5 -7 -10
-15 -10 -8 0 -15 5 -15 10 0 6 7 10 15 10 8 0 15 -4 15 -10z m930 -72 c0 -5
-6 -8 -12 -7 -28 3 -48 -2 -48 -12 0 -7 12 -9 35 -5 32 6 35 5 35 -17 0 -14
-7 -30 -15 -37 -8 -7 -15 -22 -15 -34 0 -11 -4 -27 -9 -35 -7 -11 -13 -10 -35
5 -27 20 -35 59 -13 67 7 3 5 6 -5 6 -10 1 -18 -4 -18 -11 0 -6 -3 -9 -6 -6
-9 10 40 88 55 88 7 0 11 6 8 14 -3 8 -3 17 0 20 7 7 43 -23 43 -36z m-154
-213 c19 -14 18 -14 -3 -15 -13 0 -23 5 -23 11 0 5 -4 7 -10 4 -5 -3 -10 -1
-10 4 0 16 23 13 46 -4z m64 -51 c0 -8 -4 -14 -10 -14 -5 0 -10 9 -10 21 0 11
5 17 10 14 6 -3 10 -13 10 -21z m-196 -250 c11 -7 18 -16 15 -18 -6 -7 -69 25
-69 34 0 11 31 2 54 -16z m-94 -36 c0 -9 6 -19 13 -21 7 -4 6 -6 -4 -6 -9 -1
-22 6 -29 14 -7 8 -19 15 -27 15 -12 0 -14 -7 -9 -32 5 -25 4 -30 -5 -21 -15
15 -14 70 1 88 10 12 16 12 36 -3 13 -9 24 -24 24 -34z m-10 -73 c14 -16 10
-18 -14 -9 -9 3 -16 10 -16 15 0 14 16 11 30 -6z m-323 -667 c-3 -8 -6 -5 -6
6 -1 11 2 17 5 13 3 -3 4 -12 1 -19z m-4 -58 c-7 -28 -13 -25 -13 6 0 14 4 23
9 20 5 -3 7 -15 4 -26z m637 -139 c0 -5 -7 -14 -15 -21 -12 -10 -15 -10 -15 2
0 8 3 18 7 21 9 10 23 9 23 -2z m136 -208 c-10 -10 -19 5 -10 18 6 11 8 11 12
0 2 -7 1 -15 -2 -18z m194 -167 c0 -3 -4 -8 -10 -11 -5 -3 -10 -1 -10 4 0 6 5
11 10 11 6 0 10 -2 10 -4z"/>
<path d="M4874 10079 c-3 -6 -2 -15 4 -21 6 -6 11 -2 15 11 5 22 -7 29 -19 10z"/>
<path d="M4857 10043 c-4 -3 -7 -13 -7 -22 1 -13 3 -13 11 2 11 19 8 33 -4 20z"/>
<path d="M2793 10480 c0 -25 2 -35 4 -22 2 12 2 32 0 45 -2 12 -4 2 -4 -23z"/>
<path d="M2730 10450 c0 -45 2 -50 23 -49 12 0 16 3 10 6 -8 3 -13 23 -13 49
0 24 -4 44 -10 44 -5 0 -10 -22 -10 -50z"/>
<path d="M6110 9086 c0 -2 7 -6 15 -10 8 -3 15 -1 15 4 0 6 -7 10 -15 10 -8 0
-15 -2 -15 -4z"/>
<path d="M6220 9060 c8 -5 20 -10 25 -10 6 0 3 5 -5 10 -8 5 -19 10 -25 10 -5
0 -3 -5 5 -10z"/>
<path d="M5685 9000 c3 -5 8 -10 11 -10 2 0 4 5 4 10 0 6 -5 10 -11 10 -5 0
-7 -4 -4 -10z"/>
<path d="M7150 7765 c7 -8 18 -15 25 -15 14 0 92 -82 144 -150 24 -33 31 -38
26 -20 -22 73 -78 141 -146 176 -56 28 -66 30 -49 9z"/>
<path d="M7276 7485 c4 -8 8 -15 10 -15 2 0 4 7 4 15 0 8 -4 15 -10 15 -5 0
-7 -7 -4 -15z"/>
<path d="M7281 5906 c-8 -10 -9 -16 -1 -21 5 -3 10 0 10 9 0 8 6 17 13 19 7 4
8 6 1 6 -6 1 -17 -5 -23 -13z"/>
<path d="M7195 2975 c41 -25 75 -32 75 -16 0 9 -83 41 -104 41 -6 0 7 -12 29
-25z"/>
<path d="M6890 2869 c0 -5 5 -7 10 -4 6 3 10 8 10 11 0 2 -4 4 -10 4 -5 0 -10
-5 -10 -11z"/>
<path d="M6680 2866 c0 -10 123 -75 173 -91 31 -10 62 -24 68 -31 6 -8 18 -14
25 -14 8 0 14 -4 14 -8 0 -15 114 -65 138 -60 9 2 -11 13 -44 26 -34 12 -67
29 -74 37 -7 8 -17 15 -23 15 -6 0 -22 10 -36 23 -15 13 -57 36 -96 52 -38 15
-77 34 -86 42 -14 12 -59 19 -59 9z"/>
<path d="M7811 11393 c-1 -18 4 -33 9 -33 12 0 12 17 0 45 -7 17 -9 15 -9 -12z"/>
<path d="M8337 9944 c-8 -8 1 -24 14 -24 5 0 9 7 9 15 0 15 -12 20 -23 9z"/>
<path d="M2975 9870 c3 -5 8 -10 11 -10 2 0 4 5 4 10 0 6 -5 10 -11 10 -5 0
-7 -4 -4 -10z"/>
<path d="M8530 9723 c0 -5 5 -15 10 -23 8 -12 10 -11 10 8 0 12 -4 22 -10 22
-5 0 -10 -3 -10 -7z"/>
<path d="M9868 9403 c12 -2 32 -2 45 0 12 2 2 4 -23 4 -25 0 -35 -2 -22 -4z"/>
<path d="M10188 9403 c12 -2 32 -2 45 0 12 2 2 4 -23 4 -25 0 -35 -2 -22 -4z"/>
<path d="M10188 9383 c12 -2 32 -2 45 0 12 2 2 4 -23 4 -25 0 -35 -2 -22 -4z"/>
<path d="M9150 8990 c0 -5 7 -7 15 -4 8 4 15 8 15 10 0 2 -7 4 -15 4 -8 0 -15
-4 -15 -10z"/>
<path d="M9698 8403 c6 -2 18 -2 25 0 6 3 1 5 -13 5 -14 0 -19 -2 -12 -5z"/>
<path d="M8157 7475 c3 -8 9 -12 14 -9 12 7 11 11 -5 17 -10 4 -13 1 -9 -8z"/>
<path d="M8026 7343 c-6 -14 -5 -15 5 -6 7 7 10 15 7 18 -3 3 -9 -2 -12 -12z"/>
<path d="M7762 7295 c-6 -14 -7 -27 -2 -30 11 -7 41 35 34 47 -9 14 -20 9 -32
-17z"/>
<path d="M8021 7179 c-6 -20 -10 -43 -9 -50 2 -8 -3 -13 -11 -11 -8 2 -11 -3
-8 -11 3 -7 -4 -19 -14 -25 -25 -16 -25 -52 1 -59 16 -4 18 -8 9 -19 -9 -11
-8 -14 5 -14 11 0 16 -9 16 -29 0 -32 16 -50 45 -50 11 0 45 -4 75 -9 45 -8
57 -6 66 7 10 13 14 13 28 2 9 -7 13 -18 9 -24 -3 -6 -1 -7 5 -3 7 4 12 1 12
-7 0 -7 8 -14 17 -14 26 0 63 43 63 72 0 14 5 25 10 25 6 0 10 18 10 40 0 33
-3 40 -20 40 -16 0 -19 6 -18 33 1 18 -4 42 -10 53 -11 18 -11 18 -12 -4 0
-13 -4 -21 -10 -17 -5 3 -7 12 -3 20 3 8 1 15 -5 15 -6 0 -13 -6 -15 -12 -3
-7 -6 -2 -6 11 -1 16 -5 21 -16 17 -8 -3 -15 -1 -15 4 0 12 -160 18 -160 5 -1
-5 -7 4 -14 20 l-13 30 -12 -36z m82 -26 c-7 -2 -19 -2 -25 0 -7 3 -2 5 12 5
14 0 19 -2 13 -5z"/>
<path d="M11512 6253 c-1 -7 -9 -13 -17 -13 -8 0 -15 -4 -15 -10 0 -5 -7 -10
-15 -10 -8 0 -15 5 -15 10 0 6 -4 10 -10 10 -5 0 -7 -6 -4 -14 7 -17 -35 -33
-45 -17 -8 12 -64 0 -87 -20 -8 -6 -14 -8 -14 -4 0 4 -7 2 -15 -5 -8 -6 -19
-9 -25 -5 -5 3 -24 -4 -42 -16 -21 -16 -33 -19 -36 -11 -2 7 -15 12 -28 12
-14 0 -23 -4 -19 -9 3 -5 -2 -17 -11 -26 -13 -12 -15 -27 -9 -70 3 -30 11 -57
16 -61 5 -3 7 -10 3 -15 -3 -5 0 -8 6 -7 7 2 27 -24 44 -57 22 -40 38 -59 49
-57 10 2 23 -10 33 -29 9 -18 37 -52 63 -76 25 -25 62 -60 81 -79 20 -19 40
-34 46 -34 5 0 23 -15 39 -32 l30 -33 3 173 c2 171 -1 528 -6 505z"/>
<path d="M3008 5983 c7 -3 16 -2 19 1 4 3 -2 6 -13 5 -11 0 -14 -3 -6 -6z"/>
<path d="M2839 5963 c-22 -9 -29 -19 -29 -40 0 -22 -7 -31 -30 -41 -16 -8 -34
-11 -40 -7 -5 3 -10 0 -10 -8 0 -8 -7 -17 -15 -21 -8 -3 -15 -11 -15 -17 0 -7
-6 -20 -14 -28 -8 -9 -16 -42 -19 -74 -2 -31 -7 -60 -10 -64 -12 -12 -7 -34
13 -55 11 -12 20 -28 20 -35 0 -8 13 -14 33 -15 147 -7 190 -7 245 -2 34 3 69
12 76 20 8 8 29 14 46 14 29 0 32 2 26 25 -5 18 -1 27 13 34 10 6 24 24 29 41
6 16 15 30 21 30 5 0 13 9 16 20 3 11 13 20 22 20 11 0 14 6 10 21 -7 26 23
79 46 79 12 0 17 8 17 30 0 23 -4 30 -20 30 -11 0 -20 -7 -20 -15 0 -21 -13
-19 -28 5 -7 11 -20 20 -30 20 -9 0 -32 9 -51 21 -28 17 -43 19 -102 13 -43
-4 -69 -3 -69 3 0 14 -96 11 -131 -4z m-79 -133 c0 -5 -9 -10 -21 -10 -11 0
-17 5 -14 10 3 6 13 10 21 10 8 0 14 -4 14 -10z"/>
<path d="M11492 2463 c5 -19 -15 -53 -35 -59 -12 -4 -30 -17 -40 -30 -10 -13
-24 -24 -32 -24 -7 0 -15 -7 -19 -15 -3 -8 -10 -15 -17 -15 -6 0 -22 -9 -36
-20 -14 -11 -34 -20 -43 -20 -18 0 -34 -25 -25 -40 3 -5 1 -11 -5 -15 -5 -3
-10 -1 -10 6 0 8 -4 8 -15 -1 -8 -7 -15 -19 -15 -26 0 -8 -6 -11 -15 -8 -10 4
-15 0 -15 -15 0 -12 -6 -21 -15 -21 -9 0 -12 -6 -9 -15 4 -8 1 -15 -5 -15 -6
0 -11 -9 -11 -20 0 -18 -10 -25 -32 -21 -12 2 -9 -13 8 -37 8 -12 19 -20 24
-17 5 3 14 -4 20 -16 8 -13 18 -19 30 -16 10 2 42 -2 71 -10 30 -8 66 -15 81
-14 14 1 39 -4 55 -10 29 -12 33 -13 96 -22 l37 -5 0 264 c0 228 -2 264 -15
264 -8 0 -14 -3 -13 -7z"/>
<path d="M11050 2090 c0 -19 3 -21 12 -12 9 9 9 15 0 24 -9 9 -12 7 -12 -12z"/>
</g>
</svg>
